<?xml version="1.0" encoding="utf-8"?>
<!-- Generator: Adobe Illustrator 16.0.0, SVG Export Plug-In . SVG Version: 6.00 Build 0)  -->
<!DOCTYPE svg PUBLIC "-//W3C//DTD SVG 1.1//EN" "http://www.w3.org/Graphics/SVG/1.1/DTD/svg11.dtd">
<svg version="1.1" id="Layer_1" xmlns="http://www.w3.org/2000/svg" xmlns:xlink="http://www.w3.org/1999/xlink" x="0px" y="0px"
	 width="560px" height="560px" viewBox="0 0 560 560" enable-background="new 0 0 560 560" xml:space="preserve">
<g id="Google__x2B_" transform="translate(157.000000, 0.500000)">
	<path fill="#D34836" d="M-131,279.324c0-140.828,114.336-255,255.375-255c141.031,0,255.359,114.172,255.359,255
		s-114.328,255-255.359,255C-16.664,534.324-131,420.152-131,279.324z"/>
	<path id="Shape_24_" fill="#FFFFFF" d="M371.805,220.629h-60.391v67h-28.461v-67h-66.422v-27.891h66.422v-66.414h28.461v66.414
		h50.703C365.867,201.785,369.102,211.09,371.805,220.629z"/>
	<path id="Path_6_" fill="#FFFFFF" d="M-60.844,444.355c7.141-11.992,18.211-23.781,34.617-33.469
		c37.008-22.641,86.852-25.633,113.805-27.344c-8.344-10.68-17.969-22-17.969-40.586c0-10.039,2.992-16.023,5.992-23.07
		c-6.633,0.641-13.047,1.281-19.039,1.281c-63.109,0-98.836-47-98.836-93.352c0-27.344,12.617-57.719,38.078-79.703
		c34.016-27.922,74.445-32.688,106.539-32.688h122.578l-38.078,21.383h-36.797c13.688,11.305,42.141,35.078,42.141,80.328
		c0,44-25.023,64.727-49.844,84.375c-7.914,7.688-16.688,16.023-16.688,29.055s8.773,20.297,15.406,25.633l21.391,16.664
		c26.313,21.789,50.063,42.086,50.063,83.094c0,27.055-12.641,54.203-37.273,75.031c-13.25,2.156-26.844,3.297-40.695,3.336
		c25.008-10.953,37.961-31,37.961-55.078c0-30.336-19.469-46.359-64.82-78.617c-4.703-0.422-7.703-0.422-13.688-0.422
		c-5.352,0-37.438,1.07-62.469,9.398c-13.047,4.695-51.125,19.016-51.125,61.313c0,4.594,0.484,9.047,1.438,13.344
		C-80.875,437.793-53.703,444.355-60.844,444.355z M139.781,244.48c0-42.945-25.461-109.438-74.875-109.438
		c-15.406,0-32.094,7.727-41.719,19.625c-10.055,12.477-13.055,28.5-13.055,43.883c0,39.945,23.109,105.953,74.453,105.953
		c14.758,0,30.805-7.266,40.43-16.664C138.711,274.168,139.781,255.16,139.781,244.48z"/>
	<path id="reflec_20_" fill-opacity="0.08" d="M380.305,280.863c0,140.828-114.336,255-255.367,255
		c-52.313,0-100.945-15.711-141.438-42.648L276.117,75.324C339.297,121.746,380.305,196.52,380.305,280.863z"/>
</g>
</svg>
